PathFileType	4	(X/Y/Z)	C:/Users/beibeiliu/ov580/test_trc\sequence.12_training_dense_left.trc
DataRate	CameraRate	NumFrames	NumMarkers	Units	OrigDataRate	OrigDataStartFrame	OrigNumFrames
120	120	8	19	mm	120	51	76
Frame#	Time	ThumbCMC			ThumbMCP			ThumbIP			ThumbTip			IndexMCP			IndexPIP			IndexTip			MiddleMCP			MiddlePIP			MiddleTip			RingMCP			RingPIP			RingTip			PinkyMCP			PinkyPIP			PinkyTip			BackHand1			BackHand2			BackHand3	
		X0	Y0	Z0	X1	Y1	Z1	X2	Y2	Z2	X3	Y3	Z3	X4	Y4	Z4	X5	Y5	Z5	X6	Y6	Z6	X7	Y7	Z7	X8	Y8	Z8	X9	Y9	Z9	X10	Y10	Z10	X11	Y11	Z11	X12	Y12	Z12	X13	Y13	Z13	X14	Y14	Z14	X15	Y15	Z15	X16	Y16	Z16	X17	Y17	Z17	X18	Y18	Z18	
50	0.416667	-178.934	46.147	131.193	-145.312	39.6383	116.092	-126.285	31.5265	99.0007	-114.576	14.2411	81.0109	-173.459	29.0363	59.6915	-150.659	20.9424	39.2649	-129.146	19.579	28.9265	-175.139	2.57462	56.2025	-156.797	-3.67895	33.9287	-134.929	-10.1106	17.6797	-170.443	-13.2401	65.5373	-137.531	-15.8074	53.9153	-112.717	-2.08378	72.4123	-167.677	-30.3205	80.0322	-155.22	-37.9413	65.9132	-145.936	-42.8056	45.8127	-203.278	-9.57624	109.032	-214.812	-6.3082	132.739	-211.055	22.0326	113.702	
51	0.425	-212.169	35.4463	121.801	-181.66	48.1222	103.868	-162.188	44.0574	84.2616	-143.381	29.8924	65.8608	-201.056	8.11796	51.3902	-182.12	14.0212	30.9499	-157.796	21.2246	17.7368	-191.062	-13.5597	53.5848	-176.765	-12.3245	30.6798	-147.967	-8.95918	8.43564	-176.15	-20.2946	62.3242	-150.521	-7.13089	47.2275	-132.205	15.2462	58.2716	-163.648	-34.7849	83.8458	-148.413	-34.5202	62.7333	-137.329	-36.3181	44.1536	-203.59	-26.8034	109.19	-211.863	-26.8567	137.716	-228.828	-3.79932	111.617	
52	0.433333	-235.074	8.47669	115.585	-215.181	26.872	95.2712	-197.871	29.6748	64.379	-179.544	18.6814	51.8864	-226.408	-23.4917	52.273	-214.012	-15.0025	27.6804	-194.99	0.292611	10.9704	-208.742	-42.5171	51.11	-200.316	-38.988	27.4305	-182.882	-25.3556	2.47662	-188.177	-40.4693	63.6476	-174.557	-22.3865	40.2869	-164.172	8.93235	42.5484	-173.107	-45.1782	79.6441	-160.969	-44.2999	57.002	-147.129	-48.6755	35.7039	-209.261	-44.5747	110.774	-214.418	-43.8529	143.798	-240.332	-31.3232	114.48	
53	0.441667	-254.406	-5.39084	118.642	-238.395	8.15543	85.7636	-226.711	9.35923	58.5107	-210.959	-1.5697	45.1738	-253.898	-48.4437	58.6822	-246.802	-41.6039	29.553	-235.446	-28.7601	10.8253	-238.796	-64.6679	55.7578	-229.142	-64.4301	27.0727	-216.276	-50.4684	2.4646	-216.442	-59.0184	60.2787	-202.967	-44.9357	37.7208	-199.377	-15.3619	30.9052	-197.559	-62.3548	77.3806	-188.629	-63.7509	53.1405	-178.641	-66.7397	30.9884	-221.898	-61.7728	119.456	-224.635	-54.1698	145.175	-255.78	-47.6625	122.08	
54	0.45	-266.284	-6.48571	116.747	-251.299	4.86917	88.4076	-244.203	3.9133	58.5052	-231.929	-9.78404	42.7037	-279.374	-50.6318	63.6889	-275.212	-46.0224	31.6585	-264.957	-36.2052	12.9697	-263.485	-70.3112	63.2382	-262.53	-69.7049	30.6384	-252.919	-57.5102	3.04457	-239.841	-66.7824	63.0911	-229.9	-52.6097	34.5511	-225.992	-24.3797	28.327	-223.256	-72.2693	73.6215	-218.512	-75.3177	50.6847	-214.372	-75.533	25.4863	-241.848	-65.4899	118.509	-235.984	-54.3983	146.469	-270.205	-44.3826	128.202	
55	0.458333	-263.065	10.5843	118.352	-248.865	19.6494	84.7517	-242.718	13.285	59.679	-235.905	-0.493005	37.4394	-291.86	-26.5646	66.5942	-288.24	-23.3813	35.5474	-276.521	-16.6778	12.2018	-285.691	-47.7219	63.9678	-286.718	-50.0666	31.9294	-274.038	-45.1552	6.09497	-264.047	-51.569	64.3059	-250.64	-41.7323	31.3997	-237.354	-17.0205	25.7215	-244.568	-63.7916	73.7337	-245.093	-67.0716	51.4479	-239.961	-71.7674	21.031	-259.379	-48.0443	117.376	-252.421	-41.6004	143.114	-278.779	-25.0446	131.952	
56	0.466667	-245.049	30.0645	115.496	-225.88	33.6007	84.5206	-221.215	28.6199	56.6106	-219.633	12.2663	37.817	-283.933	8.34469	60.5058	-278.304	11.0284	32.7786	-265.089	12.9054	10.8714	-285.29	-15.1951	57.6313	-283.383	-17.2734	26.7691	-270.433	-15.7632	-1.41004	-266.116	-27.5623	60.6434	-250.221	-22.2243	29.1675	-227.734	-0.651087	25.6003	-252.924	-42.0358	72.4288	-254.456	-47.4467	49.0733	-253.955	-55.1168	20.6337	-263.406	-31.4909	109.988	-253.982	-27.8944	142.57	-272.629	3.02924	124.145	
57	0.475	-213.088	43.0976	117.991	-193.528	39.0293	88.5556	-191.184	28.8306	59.203	-194.814	14.6172	42.0641	-250.11	42.1758	51.7804	-241.947	38.4653	26.2737	-226.056	35.4154	4.70201	-263.146	19.6568	50.8611	-261.638	17.4641	24.4908	-247.332	13.6834	-8.25593	-253.49	2.3483	49.9329	-235.975	1.41808	24.6655	-206.759	6.37886	24.2208	-248.959	-19.307	66.0839	-251.484	-26.3828	40.6475	-255.482	-32.1848	18.6279	-253.561	-2.37177	106.032	-250.098	1.34319	135.19	-251.434	30.6052	120.745	
